<svg xmlns="http://www.w3.org/2000/svg" width="16" height="16" viewBox="0 0 16 16">
    <g fill="currentColor">
        <path d="M15,16a1,1,0,0,1-1-1V12a1,1,0,0,0-1-1,1,1,0,0,1,0-2,3,3,0,0,1,3,3v3A1,1,0,0,1,15,16Z"/>
        <path d="M6,8a4,4,0,1,1,4-4A4,4,0,0,1,6,8ZM6,2A2,2,0,1,0,8,4,2,2,0,0,0,6,2Z"/>
        <path d="M12,8a1,1,0,0,1,0-2,2,2,0,0,0,0-4,1,1,0,0,1,0-2,4,4,0,0,1,0,8Z"/>
        <path d="M11,16a1,1,0,0,1-1-1V13a2,2,0,0,0-2-2H4a2,2,0,0,0-2,2v2a1,1,0,0,1-2,0V13A4,4,0,0,1,4,9H8a4,4,0,0,1,4,4v2A1,1,0,0,1,11,16Z"/>
    </g>
</svg>