<svg xmlns="http://www.w3.org/2000/svg" width="16" height="16" viewBox="0 0 16 16">
    <title>Alarm</title>
    <g fill="currentColor">
        <path d="M8,2A7,7,0,0,0,2,12.67l-.94,1.89a1,1,0,0,0,1.79.89l.57-1.13a7,7,0,0,0,9.08,0l.57,1.13a1,1,0,0,0,1.79-.89L14,12.67A7,7,0,0,0,8,2ZM8,14a5,5,0,1,1,5-5A5,5,0,0,1,8,14Z"/>
        <path d="M1.76,4.86A1,1,0,0,0,2.13,3.5,1,1,0,0,1,3.67,2.26,1,1,0,1,0,5,.78,3,3,0,0,0,.39,4.48a1,1,0,0,0,1.36.38Z"/>
        <path d="M13,0a3,3,0,0,0-2,.78,1,1,0,1,0,1.35,1.48A1,1,0,0,1,13.87,3.5a1,1,0,1,0,1.74,1A3,3,0,0,0,13,0Z"/>
        <path d="M9.29,6.29l-2,2A1,1,0,0,0,7,9v3a1,1,0,0,0,2,0V9.41l1.71-1.71A1,1,0,0,0,9.29,6.29Z"/>
    </g>
</svg>
