<?xml version="1.0" encoding="utf-8"?><svg xmlns="http://www.w3.org/2000/svg" xmlns:xlink="http://www.w3.org/1999/xlink"><symbol viewBox="0 0 16 16" id="rvt-icon-alarm" xmlns="http://www.w3.org/2000/svg"><g fill="currentColor"><path d="M8 2a7 7 0 0 0-6 10.67l-.94 1.89a1 1 0 0 0 1.79.89l.57-1.13a7 7 0 0 0 9.08 0l.57 1.13a1 1 0 0 0 1.79-.89L14 12.67A7 7 0 0 0 8 2zm0 12a5 5 0 1 1 5-5 5 5 0 0 1-5 5z"/><path d="M9.29 6.29l-2 2A1 1 0 0 0 7 9v3a1 1 0 0 0 2 0V9.41l1.71-1.71a1 1 0 0 0-1.42-1.41zM1.71 3.71l2-2A1 1 0 0 0 2.29.29l-2 2a1 1 0 1 0 1.42 1.42zM15.71 2.29l-2-2A1 1 0 0 0 12.3 1.7l2 2a1 1 0 0 0 1.41-1.41z"/></g></symbol><symbol viewBox="0 0 16 16" id="rvt-icon-arrow-down" xmlns="http://www.w3.org/2000/svg"><path fill="currentColor" d="M12.71 10.29a1 1 0 0 0-1.41 0L9 12.59V1a1 1 0 0 0-2 0v11.59l-2.29-2.3A1 1 0 0 0 3.3 11.7l4 4a1 1 0 0 0 1.42 0l4-4a1 1 0 0 0-.01-1.41z"/></symbol><symbol viewBox="0 0 16 16" id="rvt-icon-arrow-left" xmlns="http://www.w3.org/2000/svg"><path fill="currentColor" d="M15 7H3.41l2.3-2.29a1 1 0 0 0-1.42-1.42l-4 4a1 1 0 0 0 0 1.42l4 4A1 1 0 0 0 5.7 11.3L3.41 9H15a1 1 0 1 0 0-2z"/></symbol><symbol viewBox="0 0 16 16" id="rvt-icon-arrow-right" xmlns="http://www.w3.org/2000/svg"><path fill="currentColor" d="M15.92 8.38a1 1 0 0 0-.22-1.09l-4-4a1 1 0 0 0-1.41 1.41l2.3 2.3H1a1 1 0 0 0 0 2h11.59l-2.29 2.29a1 1 0 1 0 1.41 1.41l4-4a1 1 0 0 0 .21-.32z"/></symbol><symbol viewBox="0 0 16 16" id="rvt-icon-arrow-up" xmlns="http://www.w3.org/2000/svg"><path fill="currentColor" d="M12.71 4.29l-4-4a1 1 0 0 0-1.42 0l-4 4a1 1 0 1 0 1.42 1.42L7 3.41V15a1 1 0 0 0 2 0V3.41l2.29 2.29a1 1 0 0 0 1.41-1.41z"/></symbol><symbol viewBox="0 0 16 16" id="rvt-icon-audio-off" xmlns="http://www.w3.org/2000/svg"><g fill="currentColor"><path d="M14 15a1 1 0 0 1-.71-.29l-12-12a1 1 0 0 1 1.42-1.42l12 12A1 1 0 0 1 14 15zM12.4 2.5a1 1 0 1 0-.8 1.83 4 4 0 0 1 1.48 6.21L14.5 12a6 6 0 0 0-2.1-9.5zM8 12l-2.4-1.8A1 1 0 0 0 5 10H3V6L1.29 4.29A1 1 0 0 0 1 5v6a1 1 0 0 0 1 1h2.67l3.73 2.8A1 1 0 0 0 10 14v-1.47l-2-2zm2-6V2a1 1 0 0 0-1.6-.8l-2.67 2 1.43 1.43L8 4v1.47l3.65 3.65A2 2 0 0 0 10 6z"/></g></symbol><symbol viewBox="0 0 16 16" id="rvt-icon-audio-on" xmlns="http://www.w3.org/2000/svg"><g fill="currentColor"><path d="M12 8a2 2 0 0 0-2-2V2a1 1 0 0 0-1.6-.8L4.67 4H2a1 1 0 0 0-1 1v6a1 1 0 0 0 1 1h2.67l3.73 2.8A1 1 0 0 0 10 14v-4a2 2 0 0 0 2-2zm-4 4l-2.4-1.8A1 1 0 0 0 5 10H3V6h2a1 1 0 0 0 .6-.2L8 4z"/><path d="M12.4 2.5a1 1 0 1 0-.8 1.83 4 4 0 0 1 0 7.35 1 1 0 0 0 .78 1.84 6 6 0 0 0 .07-11z"/></g></symbol><symbol viewBox="0 0 16 16" id="rvt-icon-ban" xmlns="http://www.w3.org/2000/svg"><path fill="currentColor" d="M8 0a8 8 0 1 0 8 8 8 8 0 0 0-8-8zm6 8a6 6 0 0 1-1.11 3.47L4.53 3.11A6 6 0 0 1 14 8zM2 8a6 6 0 0 1 1.11-3.47l8.36 8.36A6 6 0 0 1 2 8z"/></symbol><symbol viewBox="0 0 16 16" id="rvt-icon-bell" xmlns="http://www.w3.org/2000/svg"><path fill="currentColor" d="M14.57 12.06L13 9.7V6A5 5 0 0 0 3 6v3.7l-1.57 2.36a1.25 1.25 0 0 0 1 1.94H6a2 2 0 0 0 4 0h3.53a1.25 1.25 0 0 0 1-1.94zM8 12H3.87L5 10.3V6a3 3 0 0 1 6 0v4.3l1.13 1.7z"/></symbol><symbol viewBox="0 0 16 16" id="rvt-icon-building" xmlns="http://www.w3.org/2000/svg"><g fill="currentColor"><path d="M15 14h-1V1a1 1 0 0 0-1-1H3a1 1 0 0 0-1 1v13H1a1 1 0 0 0 0 2h14a1 1 0 0 0 0-2zm-6 0v-1a1 1 0 0 0-2 0v1H4V2h8v12z"/><rect x="5" y="3" width="2" height="2" rx=".5" ry=".5"/><rect x="5" y="6" width="2" height="2" rx=".5" ry=".5"/><rect x="5" y="9" width="2" height="2" rx=".5" ry=".5"/><rect x="9" y="3" width="2" height="2" rx=".5" ry=".5"/><rect x="9" y="6" width="2" height="2" rx=".5" ry=".5"/><rect x="9" y="9" width="2" height="2" rx=".5" ry=".5"/></g></symbol><symbol viewBox="0 0 16 16" id="rvt-icon-calendar" xmlns="http://www.w3.org/2000/svg"><path fill="currentColor" d="M12.29 2H12V1a1 1 0 0 0-2 0v1H6V1a1 1 0 0 0-2 0v1h-.29A2.78 2.78 0 0 0 1 4.83v7.33A2.78 2.78 0 0 0 3.71 15h8.57A2.78 2.78 0 0 0 15 12.17V4.83A2.78 2.78 0 0 0 12.29 2zM3.71 4H4v1h2V4h4v1h2V4h.29a.78.78 0 0 1 .71.83V7H3V4.83A.78.78 0 0 1 3.71 4zm8.57 9H3.71a.78.78 0 0 1-.71-.83V9h10v3.17a.78.78 0 0 1-.71.83z"/></symbol><symbol viewBox="0 0 16 16" id="rvt-icon-chat" xmlns="http://www.w3.org/2000/svg"><g fill="currentColor"><path d="M14.75 0H1.25A1.25 1.25 0 0 0 0 1.25v9.5A1.25 1.25 0 0 0 1.25 12H3v3a1 1 0 0 0 1.71.71L8.41 12h6.34A1.25 1.25 0 0 0 16 10.75v-9.5A1.25 1.25 0 0 0 14.75 0zM14 10H8a1 1 0 0 0-.71.29L5 12.59V11a1 1 0 0 0-1-1H2V2h12z"/><circle cx="5" cy="6" r="1"/><circle cx="8" cy="6" r="1"/><circle cx="11" cy="6" r="1"/></g></symbol><symbol viewBox="0 0 16 16" id="rvt-icon-check" xmlns="http://www.w3.org/2000/svg"><path fill="currentColor" d="M6.72 13l-.48-.36-3-3a1 1 0 0 1 1.47-1.35l2.11 2.12 4.33-6.94a1 1 0 0 1 1.7 1.06l-5.21 8.34z"/></symbol><symbol viewBox="0 0 16 16" id="rvt-icon-check-all" xmlns="http://www.w3.org/2000/svg"><g fill="currentColor"><path d="M15 5h-3a1 1 0 0 1 0-2h3a1 1 0 0 1 0 2zM15 9h-5a1 1 0 0 1 0-2h5a1 1 0 0 1 0 2zM15 13H8a1 1 0 0 1 0-2h7a1 1 0 0 1 0 2zM3.5 13a1 1 0 0 1-.62-.22l-2.5-2a1 1 0 0 1-.16-1.4 1 1 0 0 1 1.4-.16l1.59 1.26 3.92-7a1 1 0 0 1 1.74 1l-4.5 8a1 1 0 0 1-.68.49z"/></g></symbol><symbol viewBox="0 0 16 16" id="rvt-icon-check-circle" xmlns="http://www.w3.org/2000/svg"><g fill="currentColor"><path d="M8 16a8 8 0 1 1 8-8 8 8 0 0 1-8 8zM8 2a6 6 0 1 0 6 6 6 6 0 0 0-6-6z"/><path d="M7 11.88a1.25 1.25 0 0 1-.88-.37l-1.8-1.8a1 1 0 0 1 1.39-1.42L6.92 9.5l3.3-4.13a1 1 0 0 1 1.56 1.25L8 11.41a1.25 1.25 0 0 1-.9.47zm-.59-1.72z"/></g></symbol><symbol viewBox="0 0 16 16" id="rvt-icon-check-circle-breakout" xmlns="http://www.w3.org/2000/svg"><path fill="currentColor" d="M8 16A8 8 0 1 1 10.29.33a1 1 0 0 1-.57 1.92A6 6 0 1 0 14 8a1 1 0 1 1 2 0 8 8 0 0 1-8 8z"/><path fill="currentColor" d="M7.95 11.89a1.26 1.26 0 0 1-.75-.25L3.4 8.8a1 1 0 1 1 1.2-1.6l3.17 2.38L14.18.43a1 1 0 0 1 1.64 1.15L9 11.36a1.25 1.25 0 0 1-.83.52zm-.62-1.68z"/></symbol><symbol viewBox="0 0 16 16" id="rvt-icon-chevron-down" xmlns="http://www.w3.org/2000/svg"><path fill="currentColor" d="M8 12.46a2 2 0 0 1-1.52-.7L1.24 5.65a1 1 0 1 1 1.52-1.3L8 10.46l5.24-6.11a1 1 0 0 1 1.52 1.3l-5.24 6.11a2 2 0 0 1-1.52.7z"/></symbol><symbol viewBox="0 0 16 16" id="rvt-icon-chevron-left" xmlns="http://www.w3.org/2000/svg"><path fill="currentColor" d="M10.5 15a1 1 0 0 1-.77-.36L4.87 8.8a1.25 1.25 0 0 1 0-1.61l4.86-5.83a1 1 0 0 1 1.54 1.28L6.8 8l4.47 5.36A1 1 0 0 1 10.5 15zM6.41 8.47zm0-1z"/></symbol><symbol viewBox="0 0 16 16" id="rvt-icon-chevron-right" xmlns="http://www.w3.org/2000/svg"><path fill="currentColor" d="M5.5 15a1 1 0 0 1-.77-1.64L9.2 8 4.73 2.64a1 1 0 0 1 1.54-1.28l4.86 5.84a1.25 1.25 0 0 1 0 1.61l-4.86 5.83a1 1 0 0 1-.77.36zm4.1-6.52zm0-1z"/></symbol><symbol viewBox="0 0 16 16" id="rvt-icon-chevron-up" xmlns="http://www.w3.org/2000/svg"><path fill="currentColor" d="M14 12a1 1 0 0 1-.76-.35L8 5.54l-5.24 6.11a1 1 0 1 1-1.52-1.3l5.24-6.12a2.06 2.06 0 0 1 3 0l5.24 6.11A1 1 0 0 1 14 12z"/></symbol><symbol viewBox="0 0 16 16" id="rvt-icon-chevrons-left" xmlns="http://www.w3.org/2000/svg"><g fill="currentColor"><path d="M13 13.8a1 1 0 0 1-.77-.36L8.37 8.8a1.25 1.25 0 0 1 0-1.61l3.86-4.64a1 1 0 0 1 1.54 1.28L10.3 8l3.47 4.16A1 1 0 0 1 13 13.8zM9.91 8.47zm0-1z"/><path d="M7 13.8a1 1 0 0 1-.77-.36L2.37 8.8a1.25 1.25 0 0 1 0-1.61l3.86-4.63a1 1 0 0 1 1.54 1.28L4.3 8l3.47 4.16A1 1 0 0 1 7 13.8zM3.91 8.47zm0-1z"/></g></symbol><symbol viewBox="0 0 16 16" id="rvt-icon-chevrons-right" xmlns="http://www.w3.org/2000/svg"><g fill="currentColor"><path d="M3 13.8a1 1 0 0 1-.77-1.64L5.7 8 2.23 3.84a1 1 0 0 1 1.54-1.28L7.63 7.2a1.25 1.25 0 0 1 0 1.61l-3.86 4.63a1 1 0 0 1-.77.36zm3.1-5.32zm0-1z"/><path d="M9 13.8a1 1 0 0 1-.77-1.64L11.7 8 8.23 3.84a1 1 0 0 1 1.54-1.28l3.86 4.64a1.25 1.25 0 0 1 0 1.61l-3.86 4.63a1 1 0 0 1-.77.36zm3.1-5.32zm0-1z"/></g></symbol><symbol viewBox="0 0 16 16" id="rvt-icon-clipboard" xmlns="http://www.w3.org/2000/svg"><g fill="currentColor"><path d="M14 1h-2a1 1 0 0 0-1-1H5a1 1 0 0 0-1 1H2a1 1 0 0 0-1 1v13a1 1 0 0 0 1 1h12a1 1 0 0 0 1-1V2a1 1 0 0 0-1-1zM6 2h4v1H6zm7 12H3V3h1v1a1 1 0 0 0 1 1h6a1 1 0 0 0 1-1V3h1z"/><path d="M10 7H6a1 1 0 0 0 0 2h4a1 1 0 0 0 0-2zM10 10H6a1 1 0 0 0 0 2h4a1 1 0 0 0 0-2z"/></g></symbol><symbol viewBox="0 0 16 16" id="rvt-icon-clock" xmlns="http://www.w3.org/2000/svg"><g fill="currentColor"><path d="M8 16a8 8 0 1 1 8-8 8 8 0 0 1-8 8zM8 2a6 6 0 1 0 6 6 6 6 0 0 0-6-6z"/><path d="M11.55 9.17L9 7.46V4a1 1 0 0 0-2 0v4a.94.94 0 0 0 0 .09 1 1 0 0 0 .11.37 1 1 0 0 0 .1.16 1 1 0 0 0 .14.14l.07.07 3 2a1 1 0 1 0 1.11-1.66z"/></g></symbol><symbol viewBox="0 0 16 16" id="rvt-icon-close" xmlns="http://www.w3.org/2000/svg"><path fill="currentColor" d="M9.41 8l5.29-5.29a1 1 0 0 0-1.41-1.41L8 6.59l-5.29-5.3a1 1 0 0 0-1.42 1.42L6.59 8l-5.3 5.29A1 1 0 1 0 2.7 14.7L8 9.41l5.29 5.29a1 1 0 0 0 1.41-1.41z"/></symbol><symbol viewBox="0 0 16 16" id="rvt-icon-close-circle" xmlns="http://www.w3.org/2000/svg"><g fill="currentColor"><path d="M8 0a8 8 0 1 0 8 8 8 8 0 0 0-8-8zm0 14a6 6 0 1 1 6-6 6 6 0 0 1-6 6z"/><path d="M10.83 5.17a1 1 0 0 0-1.41 0L8 6.59 6.59 5.17a1 1 0 0 0-1.42 1.42L6.59 8 5.17 9.41a1 1 0 1 0 1.41 1.41L8 9.41l1.41 1.41a1 1 0 0 0 1.41-1.41L9.41 8l1.41-1.41a1 1 0 0 0 .01-1.42z"/></g></symbol><symbol viewBox="0 0 16 16" id="rvt-icon-close-circle-solid" xmlns="http://www.w3.org/2000/svg"><path fill="currentColor" d="M8 0a8 8 0 1 0 8 8 8 8 0 0 0-8-8zm3.71 10.29a1 1 0 1 1-1.41 1.41L8 9.41l-2.29 2.3A1 1 0 0 1 4.3 10.3L6.59 8l-2.3-2.29a1 1 0 0 1 1.42-1.42L8 6.59l2.29-2.29a1 1 0 0 1 1.41 1.41L9.41 8z"/></symbol><symbol viewBox="0 0 16 16" id="rvt-icon-code" xmlns="http://www.w3.org/2000/svg"><g fill="currentColor"><path d="M5 14a1 1 0 0 1-.78-.37l-4-5a1 1 0 0 1 0-1.25l4-5a1 1 0 0 1 1.56 1.25L2.28 8l3.5 4.38A1 1 0 0 1 5 14zM11 14a1 1 0 0 1-.78-1.62L13.72 8l-3.5-4.37a1 1 0 0 1 1.56-1.25l4 5a1 1 0 0 1 0 1.25l-4 5A1 1 0 0 1 11 14z"/></g></symbol><symbol viewBox="0 0 16 16" id="rvt-icon-copy" xmlns="http://www.w3.org/2000/svg"><g fill="currentColor"><path d="M4 10.23H1.92V2H8v1h2V2a2 2 0 0 0-2-2H1.92a2 2 0 0 0-2 2v8.23a2 2 0 0 0 2 2H4z"/><path d="M14 16H8a2 2 0 0 1-2-2V7a2 2 0 0 1 2-2h6a2 2 0 0 1 2 2v7a2 2 0 0 1-2 2zM8 7v7h6V7z"/></g></symbol><symbol viewBox="0 0 16 16" id="rvt-icon-credit-card" xmlns="http://www.w3.org/2000/svg"><path fill="currentColor" d="M15 1.95H1A1.05 1.05 0 0 0-.05 3v10A1.05 1.05 0 0 0 1 14.05h14A1.05 1.05 0 0 0 16.05 13V3A1.05 1.05 0 0 0 15 1.95zm-1.05 10H2.05V8H11a1 1 0 0 0 0-2H2.05V4.05h11.9z"/></symbol><symbol viewBox="0 0 16 16" id="rvt-icon-download" xmlns="http://www.w3.org/2000/svg"><g fill="currentColor"><path d="M14.25 11a1 1 0 0 0-1 1v1H2.75v-1a1 1 0 0 0-2 0v1.75A1.25 1.25 0 0 0 2 15h12a1.25 1.25 0 0 0 1.25-1.25V12a1 1 0 0 0-1-1z"/><path d="M7.29 10.71a1 1 0 0 0 1.41 0l4-4a1 1 0 0 0-1.41-1.41L9 7.59V1a1 1 0 0 0-2 0v6.59l-2.29-2.3a1 1 0 0 0-1.42 1.42z"/></g></symbol><symbol viewBox="0 0 16 16" id="rvt-icon-ellipsis" xmlns="http://www.w3.org/2000/svg"><g fill="currentColor"><circle cx="8" cy="8" r="2"/><circle cx="14" cy="8" r="2"/><circle cx="2" cy="8" r="2"/></g></symbol><symbol viewBox="0 0 16 16" id="rvt-icon-ellipsis-vertical" xmlns="http://www.w3.org/2000/svg"><g fill="currentColor"><circle cx="8" cy="8" r="2"/><circle cx="8" cy="14" r="2"/><circle cx="8" cy="2" r="2"/></g></symbol><symbol viewBox="0 0 16 16" id="rvt-icon-envelope" xmlns="http://www.w3.org/2000/svg"><path fill="currentColor" d="M13.5 3h-11A1.5 1.5 0 0 0 1 4.5v8A1.5 1.5 0 0 0 2.5 14h11a1.5 1.5 0 0 0 1.5-1.5v-8A1.5 1.5 0 0 0 13.5 3zm-2.09 2L8 7.77 4.59 5zM3 12V6.29l4.11 3.33.12.08a1.5 1.5 0 0 0 1.54 0L13 6.29V12z"/></symbol><symbol viewBox="0 0 16 16" id="rvt-icon-exclamation" xmlns="http://www.w3.org/2000/svg"><g fill="currentColor"><path d="M8 16a8 8 0 1 1 8-8 8 8 0 0 1-8 8zM8 2a6 6 0 1 0 6 6 6 6 0 0 0-6-6z"/><path d="M8 9a1 1 0 0 1-1-1V5a1 1 0 0 1 2 0v3a1 1 0 0 1-1 1z"/><circle cx="8" cy="11" r="1"/></g></symbol><symbol viewBox="0 0 16 10" id="rvt-icon-eye" xmlns="http://www.w3.org/2000/svg"><g fill="currentColor"><path d="M8 10A9.87 9.87 0 0 1 .21 5.68a1.21 1.21 0 0 1 0-1.36A9.87 9.87 0 0 1 8 0a9.67 9.67 0 0 1 7.8 4.31 1.24 1.24 0 0 1 0 1.38A9.67 9.67 0 0 1 8 10zM2.22 5A7.73 7.73 0 0 0 8 8a7.72 7.72 0 0 0 5.81-3A7.72 7.72 0 0 0 8 2a7.73 7.73 0 0 0-5.78 3z"/><circle cx="8" cy="5" r="2"/></g></symbol><symbol viewBox="0 0 16 16" id="rvt-icon-file" xmlns="http://www.w3.org/2000/svg"><path fill="currentColor" d="M10.41 1H3.5a1.3 1.3 0 0 0-1.3 1.3v11.4A1.3 1.3 0 0 0 3.5 15h9a1.3 1.3 0 0 0 1.3-1.3V4.39zm1.39 4.21V6H9.25V3h.34zM4.2 13V3h3v3.75A1.25 1.25 0 0 0 8.5 8h3.3v5z"/></symbol><symbol viewBox="0 0 16 16" id="rvt-icon-filter" xmlns="http://www.w3.org/2000/svg"><path fill="currentColor" d="M5.25 14.88A1.25 1.25 0 0 1 4 13.63V8.31L.24 2.76A1.25 1.25 0 0 1 1.38 1h13.2a1.25 1.25 0 0 1 1.09 1.86l-.12.14L11 8.37v2.49a1.24 1.24 0 0 1-.59 1.06l-4.7 2.87a1.25 1.25 0 0 1-.46.09zM2.81 3L6 7.69v4.59l3-1.84V7.63L12.94 3z"/></symbol><symbol viewBox="0 0 16 16" id="rvt-icon-flag" xmlns="http://www.w3.org/2000/svg"><path fill="currentColor" d="M13.28 8.7l-2.81-2 2.74-2.53A1.25 1.25 0 0 0 12.36 2H4a1 1 0 0 0-2 0v13a1 1 0 0 0 2 0v-4h8.56a1.25 1.25 0 0 0 .73-2.27zm-3.07.3H4V4h6.45L7.31 6.9z"/></symbol><symbol viewBox="0 0 16 16" id="rvt-icon-gear" xmlns="http://www.w3.org/2000/svg"><path fill="currentColor" d="M13.94 8.78A6 6 0 0 0 14 8a6 6 0 0 0-.07-.9l1.8-1.1a7.94 7.94 0 0 0-.92-2.15l-2.06.52a6 6 0 0 0-1.2-1.18L12 1.1A7.94 7.94 0 0 0 9.87.23L8.78 2.06A6 6 0 0 0 8 2a6 6 0 0 0-.9.07L6 .27a7.94 7.94 0 0 0-2.15.92l.52 2.06a6 6 0 0 0-1.18 1.2L1.1 4a7.94 7.94 0 0 0-.87 2.13l1.83 1.09A6 6 0 0 0 2 8a6 6 0 0 0 .07.9L.27 10a7.94 7.94 0 0 0 .92 2.15l2.06-.52a6 6 0 0 0 1.2 1.18L4 14.9a7.94 7.94 0 0 0 2.17.87l1.09-1.83A6 6 0 0 0 8 14a6 6 0 0 0 .9-.07l1.1 1.8a7.94 7.94 0 0 0 2.15-.92l-.52-2.06a6 6 0 0 0 1.18-1.2l2.09.45a7.94 7.94 0 0 0 .87-2.17zM8 11a3 3 0 1 1 3-3 3 3 0 0 1-3 3z"/></symbol><symbol viewBox="0 0 16 16" id="rvt-icon-gears" xmlns="http://www.w3.org/2000/svg"><g fill="currentColor"><path d="M2.71 8.74L2.83 8l.74-.1 1-.14.06-.14-.58-.81L4 6.64a2 2 0 0 1-.33-.46 2 2 0 1 1 3.5-1.78l.46.35.18-.07.17-1 .13-.74.74-.1h.25l.52-.72A5.22 5.22 0 0 0 8.47 1l-1.12.84a4 4 0 0 0-.46-.23 4 4 0 0 0-.56-.18L6.1.05a5.22 5.22 0 0 0-1.54 0l-.2 1.38a4 4 0 0 0-1 .43l-1.16-.8a5.22 5.22 0 0 0-1.08 1.1L2 3.28a3.58 3.58 0 0 0-.41 1l-1.42.25a5.22 5.22 0 0 0 0 1.54l1.38.2a4 4 0 0 0 .43 1l-.8 1.16a5.22 5.22 0 0 0 1.1 1.07l.39-.29c.01-.15.01-.31.04-.47z"/><path d="M14.16 11.1l1.61-.23a6.07 6.07 0 0 0 0-1.79l-1.6-.27a4.6 4.6 0 0 0-.47-1.19l1-1.3A6.07 6.07 0 0 0 13.46 5l-1.33 1A4.16 4.16 0 0 0 11 5.47l-.23-1.61a6.07 6.07 0 0 0-1.79 0l-.27 1.6a4.6 4.6 0 0 0-1.19.47l-1.3-1a6.07 6.07 0 0 0-1.33 1.25l.94 1.32a4.16 4.16 0 0 0-.51 1.18l-1.61.23a6.07 6.07 0 0 0 0 1.79l1.6.27a4.6 4.6 0 0 0 .47 1.19l-1 1.3A6.07 6.07 0 0 0 6 14.74l1.33-.94a4.16 4.16 0 0 0 1.18.51l.23 1.61a6.07 6.07 0 0 0 1.79 0l.27-1.6a4.6 4.6 0 0 0 1.2-.45l1.3 1a6.07 6.07 0 0 0 1.3-1.27l-.94-1.33a4.15 4.15 0 0 0 .51-1.18zm-2.32-.28a2.29 2.29 0 1 1-1.17-3 2.29 2.29 0 0 1 1.17 3z"/></g></symbol><symbol viewBox="0 0 16 16" id="rvt-icon-grid" xmlns="http://www.w3.org/2000/svg"><g fill="currentColor"><path d="M6 7H2a1 1 0 0 1-1-1V2a1 1 0 0 1 1-1h4a1 1 0 0 1 1 1v4a1 1 0 0 1-1 1zM3 5h2V3H3zM14 7h-4a1 1 0 0 1-1-1V2a1 1 0 0 1 1-1h4a1 1 0 0 1 1 1v4a1 1 0 0 1-1 1zm-3-2h2V3h-2zM6 15H2a1 1 0 0 1-1-1v-4a1 1 0 0 1 1-1h4a1 1 0 0 1 1 1v4a1 1 0 0 1-1 1zm-3-2h2v-2H3zM14 15h-4a1 1 0 0 1-1-1v-4a1 1 0 0 1 1-1h4a1 1 0 0 1 1 1v4a1 1 0 0 1-1 1zm-3-2h2v-2h-2z"/></g></symbol><symbol viewBox="0 0 16 16" id="rvt-icon-home" xmlns="http://www.w3.org/2000/svg"><path fill="currentColor" d="M15.6 6.4l-7-5.19a.76.76 0 0 0-.19-.12A1 1 0 0 0 8 1a1 1 0 0 0-.42.09.76.76 0 0 0-.19.12L.4 6.4a1 1 0 0 0-.4.8 1 1 0 0 0 .2.6 1 1 0 0 0 1.4.2l.4-.3V14a1 1 0 0 0 1 1h10a1 1 0 0 0 1-1V7.7l.4.3a1 1 0 0 0 .6.2 1 1 0 0 0 .6-1.8zM12 13H9V9H7v4H4V6.22l4-3 4 3z"/></symbol><symbol viewBox="0 0 16 16" id="rvt-icon-info-circle" xmlns="http://www.w3.org/2000/svg"><g fill="currentColor"><path d="M8 16a8 8 0 1 1 8-8 8 8 0 0 1-8 8zM8 2a6 6 0 1 0 6 6 6 6 0 0 0-6-6z"/><path d="M8 12a1 1 0 0 1-1-1V8a1 1 0 0 1 2 0v3a1 1 0 0 1-1 1z"/><circle cx="8" cy="5" r="1"/></g></symbol><symbol viewBox="0 0 16 16" id="rvt-icon-lightning" xmlns="http://www.w3.org/2000/svg"><path fill="currentColor" d="M12.9 6.6A1 1 0 0 0 12 6H8.6l2.3-4.6a1 1 0 0 0-.4-1.3 1.1 1.1 0 0 0-1.3.3l-6 8a.9.9 0 0 0-.1 1 1 1 0 0 0 .9.6h3.4l-2.3 4.6a1 1 0 0 0 .4 1.3H6a.9.9 0 0 0 .8-.4l6-8a.9.9 0 0 0 .1-.9z"/></symbol><symbol viewBox="0 0 16 16" id="rvt-icon-lightning-box" xmlns="http://www.w3.org/2000/svg"><g fill="currentColor"><path d="M12 15H4a2.9 2.9 0 0 1-3-3V4a2.9 2.9 0 0 1 3-3h1a.9.9 0 0 1 1 1 .9.9 0 0 1-1 1H4a.9.9 0 0 0-1 1v8a.9.9 0 0 0 1 1h8a.9.9 0 0 0 1-1V4a1 1 0 0 1 2 0v8a2.9 2.9 0 0 1-3 3z"/><path d="M11.9 4.6A1 1 0 0 0 11 4H9.6l1.3-2.6a.9.9 0 0 0-.4-1.2.9.9 0 0 0-1.3.2l-4 5a.9.9 0 0 0-.1 1A1 1 0 0 0 6 7h1.4L6.1 9.6a.9.9 0 0 0 .4 1.2l.5.2a.9.9 0 0 0 .8-.4l4-5a.9.9 0 0 0 .1-1z"/></g></symbol><symbol viewBox="0 0 16 16" id="rvt-icon-link-external" xmlns="http://www.w3.org/2000/svg"><g fill="currentColor"><path d="M10.75 15h-8.5A1.25 1.25 0 0 1 1 13.75v-8.5A1.25 1.25 0 0 1 2.25 4H6a1 1 0 0 1 0 2H3v7h7v-3a1 1 0 0 1 2 0v3.75A1.25 1.25 0 0 1 10.75 15z"/><path d="M14.71 1.29a1 1 0 0 0-.84-.29H9a1 1 0 0 0 0 2h2.59l-4.3 4.29a1 1 0 1 0 1.42 1.42L13 4.41V7a1 1 0 0 0 2 0V2.25a1.17 1.17 0 0 0 0-.12 1 1 0 0 0-.29-.84z"/></g></symbol><symbol viewBox="0 0 16 16" id="rvt-icon-list" xmlns="http://www.w3.org/2000/svg"><g fill="currentColor"><path d="M13 4H6a1 1 0 0 1 0-2h7a1 1 0 0 1 0 2zM13 9H6a1 1 0 0 1 0-2h7a1 1 0 0 1 0 2zM13 14H6a1 1 0 0 1 0-2h7a1 1 0 0 1 0 2z"/><circle cx="3" cy="3" r="1"/><circle cx="3" cy="8" r="1"/><circle cx="3" cy="13" r="1"/></g></symbol><symbol viewBox="0 0 16 16" id="rvt-icon-lock-closed" xmlns="http://www.w3.org/2000/svg"><path fill="currentColor" d="M12.75 6H12V4a4 4 0 0 0-8 0v2h-.75A1.25 1.25 0 0 0 2 7.25v7.5A1.25 1.25 0 0 0 3.25 16h9.5A1.25 1.25 0 0 0 14 14.75v-7.5A1.25 1.25 0 0 0 12.75 6zM6 4a2 2 0 0 1 4 0v2H6zm6 10H4V8h8z"/></symbol><symbol viewBox="0 0 16 16" id="rvt-icon-lock-open" xmlns="http://www.w3.org/2000/svg"><path fill="currentColor" d="M12 0a4 4 0 0 0-4 4v2H1.25A1.25 1.25 0 0 0 0 7.25v7.5A1.25 1.25 0 0 0 1.25 16h9.5A1.25 1.25 0 0 0 12 14.75v-7.5A1.25 1.25 0 0 0 10.75 6H10V4a2 2 0 0 1 4 0v3a1 1 0 0 0 2 0V4a4 4 0 0 0-4-4zm-2 14H2V8h8z"/></symbol><symbol viewBox="0 0 16 16" id="rvt-icon-magnifying-glass" xmlns="http://www.w3.org/2000/svg"><path fill="currentColor" d="M15.71 14.29l-4.82-4.82a6 6 0 1 0-1.42 1.42l4.82 4.82a1 1 0 0 0 1.42 0 1 1 0 0 0 0-1.42zM6 10a4 4 0 1 1 4-4 4 4 0 0 1-4 4z"/></symbol><symbol viewBox="0 0 16 16" id="rvt-icon-map-pin" xmlns="http://www.w3.org/2000/svg"><g fill="currentColor"><path d="M8 0a7 7 0 0 0-7 7c0 3.69 5.73 8.28 6.38 8.79a1 1 0 0 0 1.23 0C9.27 15.28 15 10.69 15 7a7 7 0 0 0-7-7zm0 13.71C5.85 11.9 3 8.87 3 7a5 5 0 0 1 10 0c0 1.87-2.85 4.9-5 6.71z"/><path d="M8 10a3 3 0 1 1 3-3 3 3 0 0 1-3 3zm0-4a1 1 0 1 0 1 1 1 1 0 0 0-1-1z"/></g></symbol><symbol viewBox="0 0 16 16" id="rvt-icon-menu" xmlns="http://www.w3.org/2000/svg"><g fill="currentColor"><path d="M15 3H1a1 1 0 0 1 0-2h14a1 1 0 0 1 0 2zM15 9H1a1 1 0 0 1 0-2h14a1 1 0 0 1 0 2zM15 15H1a1 1 0 0 1 0-2h14a1 1 0 0 1 0 2z"/></g></symbol><symbol viewBox="0 0 16 16" id="rvt-icon-minus" xmlns="http://www.w3.org/2000/svg"><path fill="currentColor" d="M14 9H2a1 1 0 0 1 0-2h12a1 1 0 0 1 0 2z"/></symbol><symbol viewBox="0 0 16 16" id="rvt-icon-minus-circle" xmlns="http://www.w3.org/2000/svg"><g fill="currentColor"><path d="M11 9H5a1 1 0 0 1 0-2h6a1 1 0 0 1 0 2z"/><path d="M8 16a8 8 0 1 1 8-8 8 8 0 0 1-8 8zM8 2a6 6 0 1 0 6 6 6 6 0 0 0-6-6z"/></g></symbol><symbol viewBox="0 0 16 16" id="rvt-icon-note" xmlns="http://www.w3.org/2000/svg"><g fill="currentColor"><path d="M13 16H3a.9.9 0 0 1-1-1V1a.9.9 0 0 1 1-1h8a.9.9 0 0 1 .7.3l2 2a.9.9 0 0 1 .3.7v12a.9.9 0 0 1-1 1zm-9-2h8V3.4L10.6 2H4z"/><path d="M10 6H6a.9.9 0 0 1-1-1 .9.9 0 0 1 1-1h4a.9.9 0 0 1 1 1 .9.9 0 0 1-1 1zM10 9H6a.9.9 0 0 1-1-1 .9.9 0 0 1 1-1h4a.9.9 0 0 1 1 1 .9.9 0 0 1-1 1zM8 12H6a.9.9 0 0 1-1-1 .9.9 0 0 1 1-1h2a.9.9 0 0 1 1 1 .9.9 0 0 1-1 1z"/></g></symbol><symbol viewBox="0 0 16 16" id="rvt-icon-pause" xmlns="http://www.w3.org/2000/svg"><g fill="currentColor"><path d="M5 14a1 1 0 0 1-1-1V3a1 1 0 0 1 2 0v10a1 1 0 0 1-1 1zM10 14a1 1 0 0 1-1-1V3a1 1 0 0 1 2 0v10a1 1 0 0 1-1 1z"/></g></symbol><symbol viewBox="0 0 16 16" id="rvt-icon-pencil" xmlns="http://www.w3.org/2000/svg"><path fill="currentColor" d="M14.62 4.19l-2.88-2.85a1.1 1.1 0 0 0-1.55 0L0 11.62V16h4.45L14.64 5.73a1.1 1.1 0 0 0-.02-1.54zM3.62 14H2v-1.56l6-6L9.58 8zM11 6.57L9.4 5 11 3.4 12.57 5z"/></symbol><symbol viewBox="0 0 16 16" id="rvt-icon-phone" xmlns="http://www.w3.org/2000/svg"><path fill="currentColor" d="M16 12.8a3.2 3.2 0 0 1-3.2 3.2A12.8 12.8 0 0 1 0 3.2 3.2 3.2 0 0 1 3.2 0a3 3 0 0 1 .54 0 2.84 2.84 0 0 1 .53.14l1.2 5.27-1.73.9a9.55 9.55 0 0 0 5.91 5.91l.91-1.74 5.26 1.22a2.84 2.84 0 0 1 .14.53 3 3 0 0 1 .04.57z"/></symbol><symbol viewBox="0 0 16 16" id="rvt-icon-pin" xmlns="http://www.w3.org/2000/svg"><path fill="currentColor" d="M15.3 5.5L10.7.9c-.4-.4-1-.4-1.4 0l-3.1 3-4.3 1.9c-.2.2-.5.4-.5.8-.1.3 0 .7.3.9l2.8 2.8-3.2 3.2c-.4.4-.4 1 0 1.4.2.2.5.3.7.3s.5-.1.7-.3l3.2-3.2 2.8 2.8c.2.2.4.3.7.3h.2c.3-.1.6-.3.7-.6l1.9-4.2 3.1-3.1c.2-.2.3-.4.3-.7s-.2-.5-.3-.7zm-4.6 3.2c-.1.1-.2.2-.2.3l-1.4 3-2.5-2.5L4.1 7l3.1-1.4c.1 0 .2-.1.3-.2L9.9 3l3.2 3.2-2.4 2.5z"/></symbol><symbol viewBox="0 0 16 16" id="rvt-icon-play" xmlns="http://www.w3.org/2000/svg"><path fill="currentColor" d="M2.25 14.85A1.25 1.25 0 0 1 1 13.6V2.4a1.25 1.25 0 0 1 1.81-1.11L14 6.88a1.25 1.25 0 0 1 0 2.24L2.81 14.71a1.25 1.25 0 0 1-.56.14zM3 3.62v8.76L11.76 8zm10.1 5.05zm0-1.34z"/></symbol><symbol viewBox="0 0 16 16" id="rvt-icon-plus" xmlns="http://www.w3.org/2000/svg"><path fill="currentColor" d="M14 7H9V2a1 1 0 0 0-2 0v5H2a1 1 0 0 0 0 2h5v5a1 1 0 0 0 2 0V9h5a1 1 0 0 0 0-2z"/></symbol><symbol viewBox="0 0 16 16" id="rvt-icon-plus-circle" xmlns="http://www.w3.org/2000/svg"><g fill="currentColor"><path d="M11 7H9V5a1 1 0 0 0-2 0v2H5a1 1 0 0 0 0 2h2v2a1 1 0 0 0 2 0V9h2a1 1 0 0 0 0-2z"/><path d="M8 0a8 8 0 1 0 8 8 8 8 0 0 0-8-8zm0 14a6 6 0 1 1 6-6 6 6 0 0 1-6 6z"/></g></symbol><symbol viewBox="0 0 16 16" id="rvt-icon-printer" xmlns="http://www.w3.org/2000/svg"><g fill="currentColor"><circle cx="12" cy="8" r="1"/><path d="M15 4h-2V1a1 1 0 0 0-1-1H4a1 1 0 0 0-1 1v3H1a1 1 0 0 0-1 1v7a1 1 0 0 0 1 1h2v2a1 1 0 0 0 1 1h8a1 1 0 0 0 1-1v-2h2a1 1 0 0 0 1-1V5a1 1 0 0 0-1-1zM5 2h6v2H5zm6 12H5v-2h6zm3-3h-1a1 1 0 0 0-1-1H4a1 1 0 0 0-1 1H2V6h12z"/></g></symbol><symbol viewBox="0 0 16 16" id="rvt-icon-question-mark" xmlns="http://www.w3.org/2000/svg"><g fill="currentColor"><path d="M8 16a8 8 0 1 1 8-8 8 8 0 0 1-8 8zM8 2a6 6 0 1 0 6 6 6 6 0 0 0-6-6z"/><path d="M8 10a1 1 0 0 1-1-1v-.75A1.25 1.25 0 0 1 8.25 7h.64A1.08 1.08 0 0 0 10 6.18 1 1 0 0 0 9 5H7a1 1 0 0 1 0-2h2a3 3 0 0 1 3 3.5A3.08 3.08 0 0 1 9 9a1 1 0 0 1-1 1zM8 13a1 1 0 0 1-.38-.08 1 1 0 0 1-.33-.21A1 1 0 0 1 7 12a1 1 0 0 1 .08-.38 1 1 0 0 1 .21-.33 1 1 0 0 1 .9-.27.62.62 0 0 1 .19.06.74.74 0 0 1 .18.09l.15.12a.93.93 0 0 1 .21.33 1 1 0 0 1-.21 1.09 1.16 1.16 0 0 1-.33.21A1 1 0 0 1 8 13z"/></g></symbol><symbol viewBox="0 0 16 16" id="rvt-icon-redo" xmlns="http://www.w3.org/2000/svg"><path fill="currentColor" d="M13 1a1 1 0 0 0-1 1v1.21A6.68 6.68 0 1 0 7.68 15a1 1 0 0 0 0-2A4.68 4.68 0 1 1 11 5H9a1 1 0 0 0 0 2h4a1 1 0 0 0 1-1V2a1 1 0 0 0-1-1z"/></symbol><symbol viewBox="0 0 16 16" id="rvt-icon-rss" xmlns="http://www.w3.org/2000/svg"><g fill="currentColor"><circle cx="2.5" cy="13.5" r="2.5"/><path d="M10 16a1 1 0 0 1-1-.95 8.47 8.47 0 0 0-8-8 1 1 0 0 1 .1-2 10.47 10.47 0 0 1 9.9 9.9A1 1 0 0 1 10 16z"/><path d="M15 16a1 1 0 0 1-1-1A13.53 13.53 0 0 0 1 2a1 1 0 0 1 0-2 15.53 15.53 0 0 1 15 15 1 1 0 0 1-1 1z"/></g></symbol><symbol viewBox="0 0 16 16" id="rvt-icon-save" xmlns="http://www.w3.org/2000/svg"><path fill="currentColor" d="M10.41 1H2.25A1.25 1.25 0 0 0 1 2.25v11.5A1.25 1.25 0 0 0 2.25 15h11.5A1.25 1.25 0 0 0 15 13.75V5.59zM10 13H6v-2h4zm3 0h-1v-2.75A1.25 1.25 0 0 0 10.75 9h-5.5A1.25 1.25 0 0 0 4 10.25V13H3V3h2v2.75A1.25 1.25 0 0 0 6.25 7H9a1 1 0 0 0 0-2H7V3h2.59L13 6.41z"/></symbol><symbol viewBox="0 0 16 16" id="rvt-icon-settings" xmlns="http://www.w3.org/2000/svg"><g fill="currentColor"><path d="M7 15a1 1 0 0 0 2 0V7H7zM2 15a1 1 0 0 0 2 0v-4H2zM4 6.28V1a1 1 0 0 0-2 0v5.28a2 2 0 1 0 2 0zM12 15a1 1 0 0 0 2 0v-3h-2zM9 2.28V1a1 1 0 0 0-2 0v1.28a2 2 0 1 0 2 0zM14 7.28V1a1 1 0 0 0-2 0v6.28a2 2 0 1 0 2 0z"/></g></symbol><symbol viewBox="0 0 16 16" id="rvt-icon-star" xmlns="http://www.w3.org/2000/svg"><path fill="currentColor" d="M12.11 14.66a1.11 1.11 0 0 1-.46-.11L8 12.63l-3.65 1.92a1 1 0 0 1-1-.08 1 1 0 0 1-.4-1l.7-4.06-3-2.88a1 1 0 0 1 .56-1.7l4.08-.6L7.1.56a1 1 0 0 1 1.8 0l1.82 3.69 4.08.6a1 1 0 0 1 .56 1.7l-3 2.88.7 4.06a1 1 0 0 1-.4 1 1 1 0 0 1-.55.17zM8 10.5a1 1 0 0 1 .47.12l2.32 1.21-.45-2.58a1 1 0 0 1 .29-.88l1.88-1.83-2.6-.38a1 1 0 0 1-.75-.55L8 3.26 6.84 5.61a1 1 0 0 1-.75.55l-2.6.38 1.88 1.83a1 1 0 0 1 .29.88l-.45 2.58 2.32-1.21A1 1 0 0 1 8 10.5z"/></symbol><symbol viewBox="0 0 16 16" id="rvt-icon-star-solid" xmlns="http://www.w3.org/2000/svg"><path fill="currentColor" d="M15.61 5.53a1 1 0 0 0-.81-.68l-4.08-.6L8.9.56a1 1 0 0 0-1.8 0L5.28 4.25l-4.08.6a1 1 0 0 0-.56 1.7l3 2.88-.7 4.06a1 1 0 0 0 .4 1 1 1 0 0 0 1 .08L8 12.63l3.65 1.92a1.11 1.11 0 0 0 .46.11 1 1 0 0 0 .59-.19 1 1 0 0 0 .4-1l-.7-4.06 3-2.88a1 1 0 0 0 .21-1z"/></symbol><symbol viewBox="0 0 16 16" id="rvt-icon-sync" xmlns="http://www.w3.org/2000/svg"><path fill="currentColor" d="M13.93 1a1 1 0 0 0-1 1v1A7 7 0 0 0 1.41 5.67 1 1 0 0 0 2 6.94a1 1 0 0 0 1.28-.61A5 5 0 0 1 12 5h-2a1 1 0 0 0 0 2h3.52a1 1 0 0 0 .17 0h.28a1 1 0 0 0 1-1V2a1 1 0 0 0-1.04-1zM14 9.06a1 1 0 0 0-1.28.61A5 5 0 0 1 4 11h2.14a1 1 0 0 0 0-2H2.51a.88.88 0 0 0-.28 0h-.06a.7.7 0 0 0-.14 0H2a1 1 0 0 0-.84 1v4a1 1 0 0 0 2 0v-.92a7 7 0 0 0 11.42-2.73A1 1 0 0 0 14 9.06z"/></symbol><symbol viewBox="0 0 16 16" id="rvt-icon-transfer" xmlns="http://www.w3.org/2000/svg"><g fill="currentColor"><path d="M2 5h9.59l-1.3 1.29A1 1 0 1 0 11.7 7.7l3-3a1 1 0 0 0 0-1.42l-3-3a1 1 0 0 0-1.41 1.41L11.59 3H2a1 1 0 0 0 0 2zM14 11H4.41l1.3-1.29a1 1 0 0 0-1.42-1.42l-3 3a1 1 0 0 0 0 1.42l3 3A1 1 0 0 0 5.7 14.3L4.41 13H14a1 1 0 0 0 0-2z"/></g></symbol><symbol viewBox="0 0 16 16" id="rvt-icon-transfer-alternate" xmlns="http://www.w3.org/2000/svg"><g fill="currentColor"><path d="M6.29 10.29L5 11.59V2a1 1 0 0 0-2 0v9.59l-1.29-1.3a1 1 0 0 0-1.42 1.42l3 3a1 1 0 0 0 1.42 0l3-3A1 1 0 0 0 6.3 10.3zM15.71 4.29l-3-3a1 1 0 0 0-1.42 0l-3 3a1 1 0 1 0 1.42 1.42L11 4.41V14a1 1 0 0 0 2 0V4.41l1.29 1.29a1 1 0 0 0 1.41-1.41z"/></g></symbol><symbol viewBox="0 0 16 16" id="rvt-icon-trash" xmlns="http://www.w3.org/2000/svg"><g fill="currentColor"><path d="M14 4h-3V2a1 1 0 0 0-1-1H6a1 1 0 0 0-1 1v2H2a1 1 0 0 0 0 2h1v8a1 1 0 0 0 1 1h8a1 1 0 0 0 1-1V6h1a1 1 0 0 0 0-2zM7 3h2v1H7zm4 10H5V6h6z"/><path d="M8.33 8v3a1 1 0 1 0 2 0V8a1 1 0 1 0-2 0zM6.67 7a1 1 0 0 0-1 1v3a1 1 0 0 0 2 0V8a1 1 0 0 0-1-1z"/></g></symbol><symbol viewBox="0 0 16 16" id="rvt-icon-undo" xmlns="http://www.w3.org/2000/svg"><path fill="currentColor" d="M8.32 1.61A6.64 6.64 0 0 0 4 3.21V2a1 1 0 0 0-2 0v4a1 1 0 0 0 1 1h4a1 1 0 0 0 0-2H5a4.68 4.68 0 1 1 3.29 8 1 1 0 1 0 0 2 6.68 6.68 0 0 0 0-13.36z"/></symbol><symbol viewBox="0 0 16 16" id="rvt-icon-upload" xmlns="http://www.w3.org/2000/svg"><g fill="currentColor"><path d="M14 15H2a1.25 1.25 0 0 1-1.25-1.25V12a1 1 0 0 1 2 0v1h10.5v-1a1 1 0 0 1 2 0v1.75A1.25 1.25 0 0 1 14 15z"/><path d="M12.71 4.29l-4-4a1 1 0 0 0-1.42 0l-4 4a1 1 0 0 0 0 1.42 1 1 0 0 0 1.42 0L7 3.41V10a1 1 0 0 0 2 0V3.41l2.29 2.3a1 1 0 0 0 1.42 0 1 1 0 0 0 0-1.42z"/></g></symbol><symbol viewBox="0 0 16 16" id="rvt-icon-user" xmlns="http://www.w3.org/2000/svg"><g fill="currentColor"><path d="M8 8a4 4 0 1 1 4-4 4 4 0 0 1-4 4zm0-6a2 2 0 1 0 2 2 2 2 0 0 0-2-2zM12.75 16h-9.5A1.25 1.25 0 0 1 2 14.75V13a4 4 0 0 1 4-4h4a4 4 0 0 1 4 4v1.75A1.25 1.25 0 0 1 12.75 16zM4 14h8v-1a2 2 0 0 0-2-2H6a2 2 0 0 0-2 2z"/></g></symbol><symbol viewBox="0 0 16 16" id="rvt-icon-user-add" xmlns="http://www.w3.org/2000/svg"><g fill="currentColor"><path d="M15 6h-1V5a1 1 0 0 0-2 0v1h-1a1 1 0 0 0 0 2h1v1a1 1 0 0 0 2 0V8h1a1 1 0 0 0 0-2zM6 8a4 4 0 1 0-4-4 4 4 0 0 0 4 4zm0-6a2 2 0 1 1-2 2 2 2 0 0 1 2-2zM8 9H4a4 4 0 0 0-4 4v1.75A1.25 1.25 0 0 0 1.25 16h9.5A1.25 1.25 0 0 0 12 14.75V13a4 4 0 0 0-4-4zm2 5H2v-1a2 2 0 0 1 2-2h4a2 2 0 0 1 2 2z"/></g></symbol><symbol viewBox="0 0 16 16" id="rvt-icon-user-add-solid" xmlns="http://www.w3.org/2000/svg"><g fill="currentColor"><circle cx="6" cy="4" r="3.5"/><path d="M8 9H4a4 4 0 0 0-4 4v2a1 1 0 0 0 1 1h10a1 1 0 0 0 1-1v-2a4 4 0 0 0-4-4zM15 6h-1V5a1 1 0 0 0-2 0v1h-1a1 1 0 0 0 0 2h1v1a1 1 0 0 0 2 0V8h1a1 1 0 0 0 0-2z"/></g></symbol><symbol viewBox="0 0 16 16" id="rvt-icon-user-remove" xmlns="http://www.w3.org/2000/svg"><g fill="currentColor"><path d="M15 8h-4a1 1 0 0 1 0-2h4a1 1 0 0 1 0 2zM6 8a4 4 0 1 1 4-4 4 4 0 0 1-4 4zm0-6a2 2 0 1 0 2 2 2 2 0 0 0-2-2zM10.75 16h-9.5A1.25 1.25 0 0 1 0 14.75V13a4 4 0 0 1 4-4h4a4 4 0 0 1 4 4v1.75A1.25 1.25 0 0 1 10.75 16zM2 14h8v-1a2 2 0 0 0-2-2H4a2 2 0 0 0-2 2z"/></g></symbol><symbol viewBox="0 0 16 16" id="rvt-icon-user-remove-solid" xmlns="http://www.w3.org/2000/svg"><g fill="currentColor"><circle cx="6" cy="4" r="3.5"/><path d="M11 16H1a1 1 0 0 1-1-1v-2a4 4 0 0 1 4-4h4a4 4 0 0 1 4 4v2a1 1 0 0 1-1 1zM15 8h-4a1 1 0 0 1 0-2h4a1 1 0 0 1 0 2z"/></g></symbol><symbol viewBox="0 0 16 16" id="rvt-icon-user-solid" xmlns="http://www.w3.org/2000/svg"><g fill="currentColor"><circle cx="8" cy="4" r="3.5"/><path d="M13 16H3a1 1 0 0 1-1-1v-2a4 4 0 0 1 4-4h4a4 4 0 0 1 4 4v2a1 1 0 0 1-1 1z"/></g></symbol><symbol viewBox="0 0 16 16" id="rvt-icon-users" xmlns="http://www.w3.org/2000/svg"><g fill="currentColor"><path d="M5 5a1 1 0 1 1-1 1 1 1 0 0 1 1-1m0-2a3 3 0 1 0 3 3 3 3 0 0 0-3-3zM8.8 16H1.2A1.2 1.2 0 0 1 0 14.8v-1.4A3.4 3.4 0 0 1 3.4 10h3.2a3.4 3.4 0 0 1 3.4 3.4v1.4A1.2 1.2 0 0 1 8.8 16zM2 14h6v-.6A1.4 1.4 0 0 0 6.6 12H3.4A1.4 1.4 0 0 0 2 13.4zM11 2a1 1 0 1 1-1 1 1 1 0 0 1 1-1m0-2a3 3 0 1 0 3 3 3 3 0 0 0-3-3zM14.8 13H12a1 1 0 0 1 0-2h2v-.6A1.4 1.4 0 0 0 12.6 9H10a1 1 0 0 1 0-2h2.6a3.4 3.4 0 0 1 3.4 3.4v1.4a1.2 1.2 0 0 1-1.2 1.2z"/></g></symbol><symbol viewBox="0 0 16 16" id="rvt-icon-users-group-solid" xmlns="http://www.w3.org/2000/svg"><g fill="currentColor"><circle cx="12" cy="2" r="2"/><circle cx="4" cy="2" r="2"/><circle cx="8" cy="5" r="2"/><path d="M11 16H5a1 1 0 0 1-1-1v-3a4 4 0 0 1 4-4 4 4 0 0 1 4 4v3a1 1 0 0 1-1 1zM4.5 5a3.44 3.44 0 0 0-2.41.55A4.65 4.65 0 0 0 0 9.53V12a1 1 0 0 0 1 1h1.5v-1a5.49 5.49 0 0 1 2.81-4.79A3.47 3.47 0 0 1 4.5 5zM11.5 5a3.44 3.44 0 0 1 2.41.55A4.65 4.65 0 0 1 16 9.53V12a1 1 0 0 1-1 1h-1.5v-1a5.49 5.49 0 0 0-2.81-4.79A3.47 3.47 0 0 0 11.5 5z"/></g></symbol><symbol viewBox="0 0 16 16" id="rvt-icon-users-solid" xmlns="http://www.w3.org/2000/svg"><g fill="currentColor"><circle cx="11" cy="3" r="3"/><circle cx="5" cy="7" r="3"/><path d="M1 16h8a1 1 0 0 0 1-1v-1a3 3 0 0 0-3-3H3a3 3 0 0 0-3 3v1a1 1 0 0 0 1 1zM13 7H9.5a4.45 4.45 0 0 1-1 2.78 4.49 4.49 0 0 1 3 4.22H15a1 1 0 0 0 1-1v-3a3 3 0 0 0-3-3z"/></g></symbol></svg>