<svg xmlns="http://www.w3.org/2000/svg" width="16" height="16" viewBox="0 0 16 16">
  <path fill="currentColor" d="M12.11,14.66a1.11,1.11,0,0,1-.46-.11L8,12.63,4.35,14.55a1,1,0,0,1-1-.08,1,1,0,0,1-.4-1l.7-4.06-3-2.88a1,1,0,0,1,.56-1.7l4.08-.6L7.1.56a1,1,0,0,1,1.8,0l1.82,3.69,4.08.6a1,1,0,0,1,.56,1.7l-3,2.88.7,4.06a1,1,0,0,1-.4,1A1,1,0,0,1,12.11,14.66ZM8,10.5a1,1,0,0,1,.47.12l2.32,1.21-.45-2.58a1,1,0,0,1,.29-.88l1.88-1.83-2.6-.38a1,1,0,0,1-.75-.55L8,3.26,6.84,5.61a1,1,0,0,1-.75.55l-2.6.38L5.37,8.37a1,1,0,0,1,.29.88l-.45,2.58,2.32-1.21A1,1,0,0,1,8,10.5Z"/>
</svg>
