<svg xmlns="http://www.w3.org/2000/svg" width="16" height="16" fill="currentColor" viewBox="0 0 16 16">
  <path d="M10 7a1 1 0 1 0 0-2 1 1 0 0 0 0 2ZM7 6a1 1 0 1 1-2 0 1 1 0 0 1 2 0ZM4.86 8.732a1 1 0 0 1 1.398.116l.005.005c.01.01.03.031.062.06.064.057.169.142.315.23.287.172.736.357 1.36.357.624 0 1.073-.185 1.36-.357a2.05 2.05 0 0 0 .377-.29l.005-.005a1 1 0 0 1 1.526 1.292l-.001.002-.001.001-.003.004-.007.008-.018.02a2.42 2.42 0 0 1-.225.224c-.145.13-.352.296-.623.459A4.603 4.603 0 0 1 8 11.5a4.603 4.603 0 0 1-2.39-.643 4.046 4.046 0 0 1-.795-.624 2.269 2.269 0 0 1-.053-.057l-.018-.021-.007-.008-.003-.004v-.001l-.002-.001a1 1 0 0 1 .128-1.41Z"/>
  <path d="M8 0a8 8 0 1 0 0 16A8 8 0 0 0 8 0ZM2 8a6 6 0 1 1 12 0A6 6 0 0 1 2 8Z"/>
</svg>
