<svg xmlns="http://www.w3.org/2000/svg" width="16" height="16" viewBox="0 0 16 16">
  <g fill="currentColor">
    <path d="M15,14H14V1a1,1,0,0,0-1-1H3A1,1,0,0,0,2,1V14H1a1,1,0,0,0,0,2H15a1,1,0,0,0,0-2ZM9,14V13a1,1,0,0,0-2,0v1H4V2h8V14Z"/>
    <rect x="5" y="3" width="2" height="2" rx="0.5" ry="0.5"/>
    <rect x="5" y="6" width="2" height="2" rx="0.5" ry="0.5"/>
    <rect x="5" y="9" width="2" height="2" rx="0.5" ry="0.5"/>
    <rect x="9" y="3" width="2" height="2" rx="0.5" ry="0.5"/>
    <rect x="9" y="6" width="2" height="2" rx="0.5" ry="0.5"/>
    <rect x="9" y="9" width="2" height="2" rx="0.5" ry="0.5"/>
  </g>
</svg>
