<svg xmlns="http://www.w3.org/2000/svg" width="16" height="16" viewBox="0 0 16 16">
  <g fill="currentColor">
    <path d="M12,15H4a2.9,2.9,0,0,1-3-3V4A2.9,2.9,0,0,1,4,1H5A.9.9,0,0,1,6,2,.9.9,0,0,1,5,3H4A.9.9,0,0,0,3,4v8a.9.9,0,0,0,1,1h8a.9.9,0,0,0,1-1V4a1,1,0,0,1,2,0v8A2.9,2.9,0,0,1,12,15Z"/>
    <path d="M11.9,4.6A1,1,0,0,0,11,4H9.6l1.3-2.6A.9.9,0,0,0,10.5.2.9.9,0,0,0,9.2.4l-4,5a.9.9,0,0,0-.1,1A1,1,0,0,0,6,7H7.4L6.1,9.6a.9.9,0,0,0,.4,1.2L7,11a.9.9,0,0,0,.8-.4l4-5A.9.9,0,0,0,11.9,4.6Z"/>
  </g>
</svg>
