<svg xmlns="http://www.w3.org/2000/svg" width="16" height="16" viewBox="0 0 16 16">
  <title>Gears Icon</title>
  <path fill="currentColor" d="M2.71,8.74,2.83,8l.74-.1,1-.14.06-.14,0,0-.58-.81L4,6.64a2.05,2.05,0,0,1-.33-.46l0,0h0A1.94,1.94,0,0,1,3.55,4.5a2,2,0,0,1,3.58-.13l.46.35.17-.07.17-1,.13-.74.74-.1h.25l.52-.72A5.36,5.36,0,0,0,8.47,1l-1.12.83c-.15-.08-.3-.16-.46-.23a4.17,4.17,0,0,0-.57-.18L6.1.05a5.29,5.29,0,0,0-1.54,0l-.2,1.39a3.81,3.81,0,0,0-1,.43L2.2,1.06a5.32,5.32,0,0,0-1.07,1.1L2,3.28c-.08.15-.16.3-.23.46a4.17,4.17,0,0,0-.18.57L.17,4.53a5.29,5.29,0,0,0,0,1.54l1.39.2a3.81,3.81,0,0,0,.43,1L1.18,8.43A5.32,5.32,0,0,0,2.28,9.5l.38-.28C2.68,9.06,2.68,8.9,2.71,8.74Z"/><path fill="currentColor" d="M14.16,11.1l1.61-.23a5.91,5.91,0,0,0,0-1.78l-1.6-.28a4.37,4.37,0,0,0-.48-1.19l1-1.3A6,6,0,0,0,13.46,5L12.13,6a4.44,4.44,0,0,0-.53-.28A3.87,3.87,0,0,0,11,5.47l-.22-1.61a6.61,6.61,0,0,0-1-.08,7.16,7.16,0,0,0-.8.05L8.67,5.44a4.75,4.75,0,0,0-1.2.47l-1.3-1A6.06,6.06,0,0,0,4.89,6.18L5.83,7.5A5.36,5.36,0,0,0,5.55,8a5.61,5.61,0,0,0-.23.65l-1.61.23a6.32,6.32,0,0,0,0,1.79l1.6.27a4.54,4.54,0,0,0,.47,1.19l-1,1.3A6.31,6.31,0,0,0,6,14.74l1.33-.94a4.44,4.44,0,0,0,.53.28,3.87,3.87,0,0,0,.65.23l.22,1.61a6.58,6.58,0,0,0,1,.08,7.34,7.34,0,0,0,.81-.05l.27-1.61A4.54,4.54,0,0,0,12,13.87l1.3,1A6.11,6.11,0,0,0,14.6,13.6l-.95-1.32a5.45,5.45,0,0,0,.29-.53A5,5,0,0,0,14.16,11.1Zm-2.32-.28a2.29,2.29,0,0,1-2.1,1.36A2.38,2.38,0,0,1,8.81,12a2.3,2.3,0,1,1,3-1.17Z"/>
</svg>