<svg xmlns="http://www.w3.org/2000/svg" width="16" height="16" viewBox="0 0 16 16">
  <title>Eye Icon</title>
  <g fill="currentColor">
    <path d="M16,8a1.21,1.21,0,0,0,0-.19,1,1,0,0,0-.11-.28l0-.08h0A9.61,9.61,0,0,0,8,3C3.34,3,.67,6.68.17,7.44h0s0,.07,0,.1a1.39,1.39,0,0,0-.1.26A1.21,1.21,0,0,0,0,8a1.21,1.21,0,0,0,0,.19,1.39,1.39,0,0,0,.1.26s0,.07,0,.1h0C.67,9.32,3.34,13,8,13a9.61,9.61,0,0,0,7.83-4.44h0l0-.08A1,1,0,0,0,16,8.19,1.21,1.21,0,0,0,16,8ZM8,11A7.62,7.62,0,0,1,2.25,8,7.62,7.62,0,0,1,8,5a7.65,7.65,0,0,1,5.77,3A7.65,7.65,0,0,1,8,11Z"/>
    <circle cx="8" cy="8" r="2"/>
  </g>
</svg>
