<svg xmlns="http://www.w3.org/2000/svg" width="16" height="16" viewBox="0 0 16 16">
    <title>Megaphone</title>
    <g fill="currentColor">
        <path d="M4.52,5.63H3.43a1.14,1.14,0,0,0,0,2.28H4.57V5.63Zm2.34,0V7.88a22.38,22.38,0,0,1,3.19.27,8.4,8.4,0,0,1,2.52.78V4.61a8.79,8.79,0,0,1-2.52.78A22.38,22.38,0,0,1,6.86,5.64ZM4.68,3.34h0a27.8,27.8,0,0,0,5-.21,5.46,5.46,0,0,0,2.24-.78A1.49,1.49,0,0,0,12.57,1h2.29V5.62c.68.22,1.14.65,1.14,1.14s-.46.91-1.14,1.14v4.57h0v0H12.57a1.49,1.49,0,0,0-.66-1.31,5.45,5.45,0,0,0-2.24-.79c-1-.17-3.18-.23-3.18-.23L4.92,14.83,2.76,14.1l1.32-3.92H3.43a3.43,3.43,0,0,1,0-6.86Z"/>
    </g>
</svg>
