<svg xmlns="http://www.w3.org/2000/svg" width="16" height="16" viewBox="0 0 16 16">
  <path fill="currentColor" d="M8,15.61l-.8-1.4a20.94,20.94,0,0,0-4-4.6C1.5,8.11,0,6.81,0,4.61A4.25,4.25,0,0,1,3.5.51,4.57,4.57,0,0,1,8,2,4.57,4.57,0,0,1,12.5.51,4.25,4.25,0,0,1,16,4.61c0,2.2-1.4,3.5-3.1,5.1a20.94,20.94,0,0,0-4,4.6ZM4.5,2.41a1.27,1.27,0,0,0-.6.1A2.25,2.25,0,0,0,2,4.61c0,1.3.8,2.1,2.5,3.6A27,27,0,0,1,8,12a34.11,34.11,0,0,1,3.5-3.8c1.6-1.5,2.5-2.3,2.5-3.6a2.25,2.25,0,0,0-1.9-2.1,2.86,2.86,0,0,0-3.2,1.8L8,6.11l-.9-1.9A2.85,2.85,0,0,0,4.5,2.41Z"/>
</svg>